<svg width="18" height="18" viewBox="0 0 18 18" fill="none" xmlns="http://www.w3.org/2000/svg">
<path d="M9.24019 5.48002C7.80444 5.48002 6.64076 6.27359 6.64076 7.25336C6.64076 8.23312 7.80444 9.02669 9.24019 9.02669C10.6759 9.02669 11.8396 9.82026 11.8396 10.8C11.8396 11.7798 10.6759 12.5734 9.24019 12.5734M9.24019 5.48002V12.5734M9.24019 5.48002C10.202 5.48002 11.0425 5.83646 11.4922 6.36669M9.24019 5.48002V4.59336M9.24019 12.5734V13.46M9.24019 12.5734C8.2784 12.5734 7.43792 12.2169 6.98822 11.6867M17.0385 9.02669C17.0385 10.0746 16.8368 11.1123 16.4449 12.0805C16.053 13.0487 15.4786 13.9284 14.7544 14.6694C14.0303 15.4104 13.1706 15.9982 12.2245 16.3992C11.2783 16.8003 10.2643 17.0067 9.24019 17.0067C8.2161 17.0067 7.20204 16.8003 6.25591 16.3992C5.30978 15.9982 4.4501 15.4104 3.72596 14.6694C3.00182 13.9284 2.42741 13.0487 2.0355 12.0805C1.6436 11.1123 1.44189 10.0746 1.44189 9.02669C1.44189 6.91026 2.2635 4.88052 3.72596 3.38398C5.18843 1.88744 7.17195 1.04669 9.24019 1.04669C11.3084 1.04669 13.292 1.88744 14.7544 3.38398C16.2169 4.88052 17.0385 6.91026 17.0385 9.02669Z" stroke="#3F3F46" stroke-width="1.75" stroke-linecap="round" stroke-linejoin="round"/>
</svg>
