<svg width="23" height="19" viewBox="0 0 23 19" fill="none" xmlns="http://www.w3.org/2000/svg">
<path d="M16.1673 17.627H21.1185V15.6004C21.1185 14.9686 20.9261 14.3525 20.5681 13.8378C20.2101 13.3231 19.7043 12.9353 19.1209 12.7283C18.5376 12.5214 17.9058 12.5055 17.3132 12.683C16.7207 12.8605 16.1969 13.2224 15.8147 13.7186M16.1673 17.627H6.26465M16.1673 17.627V15.6004C16.1673 14.9356 16.0425 14.3003 15.8147 13.7186M15.8147 13.7186C15.447 12.7782 14.8123 11.9721 13.9926 11.4043C13.1729 10.8365 12.2058 10.533 11.216 10.533C10.2261 10.533 9.25896 10.8365 8.43927 11.4043C7.61957 11.9721 6.98492 12.7782 6.61719 13.7186M6.26465 17.627H1.31335V15.6004C1.3134 14.9686 1.5058 14.3525 1.8638 13.8378C2.22181 13.3231 2.72763 12.9353 3.31096 12.7283C3.89428 12.5214 4.52613 12.5055 5.11866 12.683C5.7112 12.8605 6.23497 13.2224 6.61719 13.7186M6.26465 17.627V15.6004C6.26465 14.9356 6.38943 14.3003 6.61719 13.7186M14.1867 4.4537C14.1867 5.25995 13.8737 6.03319 13.3166 6.6033C12.7595 7.17341 12.0039 7.4937 11.216 7.4937C10.4281 7.4937 9.67242 7.17341 9.11529 6.6033C8.55816 6.03319 8.24517 5.25995 8.24517 4.4537C8.24517 3.64744 8.55816 2.8742 9.11529 2.30409C9.67242 1.73398 10.4281 1.4137 11.216 1.4137C12.0039 1.4137 12.7595 1.73398 13.3166 2.30409C13.8737 2.8742 14.1867 3.64744 14.1867 4.4537ZM20.1283 7.4937C20.1283 8.0312 19.9196 8.54669 19.5482 8.92677C19.1768 9.30684 18.673 9.52036 18.1478 9.52036C17.6225 9.52036 17.1188 9.30684 16.7473 8.92677C16.3759 8.54669 16.1673 8.0312 16.1673 7.4937C16.1673 6.95619 16.3759 6.4407 16.7473 6.06063C17.1188 5.68055 17.6225 5.46703 18.1478 5.46703C18.673 5.46703 19.1768 5.68055 19.5482 6.06063C19.9196 6.4407 20.1283 6.95619 20.1283 7.4937ZM6.26465 7.4937C6.26465 8.0312 6.05599 8.54669 5.68457 8.92677C5.31315 9.30684 4.8094 9.52036 4.28413 9.52036C3.75887 9.52036 3.25511 9.30684 2.88369 8.92677C2.51228 8.54669 2.30361 8.0312 2.30361 7.4937C2.30361 6.95619 2.51228 6.4407 2.88369 6.06063C3.25511 5.68055 3.75887 5.46703 4.28413 5.46703C4.8094 5.46703 5.31315 5.68055 5.68457 6.06063C6.05599 6.4407 6.26465 6.95619 6.26465 7.4937Z" stroke="#3F3F46" stroke-width="2" stroke-linecap="round" stroke-linejoin="round"/>
</svg>
