<svg width="20" height="20" viewBox="0 0 20 20" fill="none" xmlns="http://www.w3.org/2000/svg">
<path d="M10.5858 1.58579C10.2107 1.96086 10 2.46957 10 3V4C10 4.26522 9.89464 4.51957 9.70711 4.70711C9.51957 4.89464 9.26522 5 9 5H6C5.73478 5 5.48043 5.10536 5.29289 5.29289C5.10536 5.48043 5 5.73478 5 6V9C5 9.26522 4.89464 9.51957 4.70711 9.70711C4.51957 9.89464 4.26522 10 4 10H3C2.46957 10 1.96086 10.2107 1.58579 10.5858C1.21071 10.9609 1 11.4696 1 12C1 12.5304 1.21071 13.0391 1.58579 13.4142C1.96086 13.7893 2.46957 14 3 14H4C4.26522 14 4.51957 14.1054 4.70711 14.2929C4.89464 14.4804 5 14.7348 5 15V18C5 18.2652 5.10536 18.5196 5.29289 18.7071C5.48043 18.8946 5.73478 19 6 19H9C9.26522 19 9.51957 18.8946 9.70711 18.7071C9.89464 18.5196 10 18.2652 10 18V17C10 16.4696 10.2107 15.9609 10.5858 15.5858C10.9609 15.2107 11.4696 15 12 15C12.5304 15 13.0391 15.2107 13.4142 15.5858C13.7893 15.9609 14 16.4696 14 17V18C14 18.2652 14.1054 18.5196 14.2929 18.7071C14.4804 18.8946 14.7348 19 15 19H18C18.2652 19 18.5196 18.8946 18.7071 18.7071C18.8946 18.5196 19 18.2652 19 18V15C19 14.7348 18.8946 14.4804 18.7071 14.2929C18.5196 14.1054 18.2652 14 18 14H17C16.4696 14 15.9609 13.7893 15.5858 13.4142C15.2107 13.0391 15 12.5304 15 12C15 11.4696 15.2107 10.9609 15.5858 10.5858C15.9609 10.2107 16.4696 10 17 10H18C18.2652 10 18.5196 9.89464 18.7071 9.70711C18.8946 9.51957 19 9.26522 19 9V6C19 5.73478 18.8946 5.48043 18.7071 5.29289C18.5196 5.10536 18.2652 5 18 5H15C14.7348 5 14.4804 4.89464 14.2929 4.70711C14.1054 4.51957 14 4.26522 14 4V3C14 2.46957 13.7893 1.96086 13.4142 1.58579C13.0391 1.21071 12.5304 1 12 1C11.4696 1 10.9609 1.21071 10.5858 1.58579Z" stroke="#1A1A1A" stroke-opacity="0.76" stroke-width="2" stroke-linecap="round" stroke-linejoin="round"/>
</svg>
