<svg width="18" height="19" viewBox="0 0 18 19" fill="none" xmlns="http://www.w3.org/2000/svg">
<path d="M8.90644 6.15594V9.53372L11.3821 12.067M16.3334 9.53372C16.3334 10.5318 16.1413 11.52 15.768 12.4421C15.3948 13.3642 14.8477 14.202 14.1581 14.9077C13.4684 15.6135 12.6497 16.1733 11.7486 16.5552C10.8475 16.9371 9.88176 17.1337 8.90644 17.1337C7.93112 17.1337 6.96535 16.9371 6.06427 16.5552C5.16319 16.1733 4.34445 15.6135 3.65479 14.9077C2.96514 14.202 2.41807 13.3642 2.04483 12.4421C1.6716 11.52 1.47949 10.5318 1.47949 9.53372C1.47949 7.51807 2.26197 5.58498 3.65479 4.1597C5.04762 2.73443 6.93669 1.93372 8.90644 1.93372C10.8762 1.93372 12.7653 2.73443 14.1581 4.1597C15.5509 5.58498 16.3334 7.51807 16.3334 9.53372Z" stroke="#3F3F46" stroke-width="2" stroke-linecap="round" stroke-linejoin="round"/>
</svg>
