<svg width="93" height="58" viewBox="0 0 93 58" fill="none" xmlns="http://www.w3.org/2000/svg">
<path d="M22.0843 34.2199L25.3497 16.5052L22.126 17.0613L19.9773 29.4413L14.3494 18.4027L11.4254 18.907L9.27663 31.2871L3.64875 20.2484L0.425131 20.8045L8.82473 36.507L11.2838 36.0829L13.5471 23.0951L19.5925 34.6497L22.0843 34.2199ZM64.8215 26.8481L68.0861 9.13356L64.8625 9.68961L62.7145 22.0695L57.0866 11.0309L54.1625 11.5353L52.0166 23.9148L46.3859 12.8767L43.1623 13.4327L51.5619 29.1352L54.0209 28.7111L56.2856 15.7231L62.331 27.2777L64.8215 26.8481Z" fill="url(#paint0_linear)"/>
<path d="M40.3402 35.1146C40.6203 35.045 40.8632 34.8582 41.0155 34.5956C41.1679 34.3329 41.2171 34.0158 41.1524 33.714L40.3571 30.0019L42.6101 29.4414C43.0465 29.3329 43.425 29.042 43.6623 28.6327C43.8996 28.2235 43.9764 27.7294 43.8756 27.2592C43.7749 26.7889 43.5049 26.3811 43.1251 26.1254C42.7453 25.8697 42.2867 25.787 41.8504 25.8955L34.357 27.7596C34.8658 27.0401 35.3893 26.2507 35.9145 25.4168C36.1793 24.9882 36.7773 23.9716 36.8148 23.9079C37.4159 22.8578 37.9387 21.8264 38.3917 20.8459C40.5822 15.986 40.8716 11.913 39.2507 8.72594C38.8109 7.79442 38.2046 6.96575 37.4666 6.28758C36.7286 5.60941 35.8735 5.09512 34.9504 4.77427L34.1214 0.905185C34.0567 0.603377 33.8835 0.341609 33.6397 0.177469C33.3959 0.0133281 33.1016 -0.0397405 32.8215 0.0299372C32.5414 0.0996152 32.2985 0.286332 32.1461 0.549012C31.9938 0.811692 31.9446 1.12882 32.0092 1.43063L32.6549 4.44396C32.2999 4.45234 31.5028 4.58753 31.4641 4.59716L30.8475 1.71962C30.7829 1.41781 30.6096 1.15604 30.3658 0.991902C30.122 0.827762 29.8277 0.774693 29.5476 0.844371C29.2675 0.914049 29.0246 1.10077 28.8723 1.36345C28.7199 1.62613 28.6707 1.94325 28.7353 2.24506L29.4055 5.37295C29.304 5.41957 29.2069 5.47689 29.1159 5.54409C28.043 6.18523 27.1311 7.09827 26.4592 8.20428L26.3476 8.39664C25.89 9.11473 25.5738 9.92623 25.4184 10.7811C25.2631 11.636 25.2719 12.516 25.4444 13.3671L25.4756 13.5127C25.4939 13.6008 25.5224 13.6861 25.5604 13.7665C25.6993 14.1506 25.9369 14.484 26.2454 14.7276C26.3016 14.7774 26.3621 14.8212 26.4262 14.8584C26.4554 14.8809 26.4869 14.8999 26.5199 14.915C26.5702 14.9487 26.6241 14.9758 26.6803 14.9958C26.7016 15.0017 26.7257 15.0173 26.747 15.0232C26.7926 15.0474 26.841 15.065 26.8909 15.0753C26.9129 15.081 27.044 15.1251 27.0872 15.1367C27.1044 15.1425 27.1222 15.1453 27.1402 15.1451C27.203 15.1609 27.2668 15.1717 27.3311 15.1775L27.5185 15.1972C27.5283 15.1948 27.5496 15.2007 27.5595 15.1982C27.6195 15.1945 27.6921 15.198 27.7522 15.1942L27.9524 15.1772L27.9623 15.1747C28.0284 15.1675 28.0939 15.1549 28.1582 15.1372C28.4287 15.0763 28.6854 14.9585 28.9136 14.7905C29.1418 14.6225 29.337 14.4077 29.488 14.1583L29.5422 14.0649C29.675 13.7802 29.7535 13.4695 29.7729 13.1515C29.7922 12.8334 29.7521 12.5144 29.6549 12.2134C29.4914 11.7041 29.4613 11.1561 29.5679 10.6296C29.6745 10.1031 29.9136 9.61841 30.2591 9.22873C30.5272 8.93486 30.8415 8.69437 31.1874 8.51836C31.4572 8.38512 31.739 8.28182 32.0283 8.21008C32.5058 8.10463 32.9956 8.07901 33.4804 8.13413C34.033 8.22551 34.5592 8.45084 35.0194 8.79315C35.4795 9.13546 35.8615 9.58581 36.1367 10.1103L36.3333 10.4569C36.8227 11.4847 37.0283 12.6421 36.9255 13.792C36.7772 15.4331 36.3646 17.0338 35.7061 18.5223C35.4594 19.1326 35.1726 19.7425 34.8729 20.3445L32.5317 9.4177C32.5029 9.42488 32.3457 9.4528 32.2971 9.46488C32.0894 9.51732 31.8866 9.58999 31.6911 9.68198C31.375 9.82162 31.1102 10.069 30.9371 10.3863C30.764 10.7036 30.6921 11.0732 30.7326 11.4387L33.255 23.2113C31.8771 25.4377 30.3281 27.5353 28.6243 29.4822C28.3712 29.7641 28.2093 30.1266 28.1629 30.5157C28.1164 30.9048 28.1878 31.2996 28.3665 31.6414C28.5452 31.9832 28.8216 32.2536 29.1544 32.4124C29.4873 32.5713 29.8589 32.61 30.2139 32.5228L34.9839 31.3362L35.7794 35.049C35.8441 35.3508 36.0174 35.6126 36.2611 35.7767C36.5049 35.9408 36.7992 35.9939 37.0793 35.9242C37.3594 35.8546 37.6023 35.6678 37.7547 35.4052C37.907 35.1425 37.9563 34.8254 37.8916 34.5235L37.0966 30.813L38.2583 30.524L39.0538 34.2368C39.0825 34.3868 39.139 34.5289 39.2198 34.6549C39.3006 34.7808 39.4041 34.8879 39.5241 34.9698C39.6442 35.0517 39.7783 35.1068 39.9185 35.1317C40.0587 35.1565 40.2021 35.1508 40.3402 35.1146Z" fill="url(#paint1_linear)"/>
<path d="M0 54.066L5.51909 51.6921L11.0996 49.4816L16.73 47.4113L22.4066 45.482L28.1323 43.7161L33.8964 42.0927L39.7016 40.6375L45.5393 39.3263C47.4903 38.937 49.4478 38.5407 51.4009 38.1304L57.2863 37.0489L60.2439 36.6082C61.2309 36.4743 62.218 36.3287 63.2065 36.2042L66.1799 35.9122C67.172 35.8211 68.1641 35.7409 69.1562 35.6607L72.139 35.5143L75.1219 35.3936C77.1126 35.3718 79.1033 35.3625 81.0911 35.3781C83.0811 35.438 85.0697 35.5338 87.0546 35.6366C89.0403 35.8086 91.023 35.9745 93 36.2259V36.5631C91.0208 36.8224 89.0475 36.9975 87.0748 37.1782C85.1051 37.3861 83.1389 37.5932 81.1742 37.7621C79.2117 37.9856 77.2499 38.1841 75.2895 38.3702L72.3536 38.7097L69.4185 39.0211C68.4416 39.1441 67.4675 39.2656 66.4877 39.3777L63.554 39.6946C62.5778 39.8215 61.6031 39.9282 60.624 40.0458L57.6888 40.3572L51.8244 41.0798C49.8734 41.3678 47.9267 41.6723 45.9787 41.979L40.1568 43.055L34.3566 44.2759L28.576 45.6167L22.8228 47.1022L17.0949 48.7108L11.3995 50.4634L5.7402 52.3593L0.111999 54.3744L0 54.066Z" fill="url(#paint2_linear)"/>
<path d="M8.29501 57.768L12.197 56.0885L16.1459 54.5243L20.1295 53.0598L24.1463 51.6949L28.1971 50.4491L32.2761 49.2999L36.3832 48.2706L40.5135 47.3425C41.8966 47.0653 43.2788 46.7874 44.6611 46.4969L48.8254 45.7316L50.9209 45.4201C51.6196 45.3251 52.3176 45.2224 53.0164 45.1344C53.7173 45.0666 54.4182 44.9911 55.1205 44.9289L57.2269 44.7498C58.6345 44.6781 60.0413 44.6104 61.4482 44.5621C62.8572 44.5621 64.2663 44.5325 65.6717 44.5535C67.08 44.5933 68.4898 44.6602 69.8909 44.7326C71.2963 44.8549 72.6988 44.9724 74.0977 45.15V45.389C72.6981 45.572 71.3013 45.6958 69.9068 45.8242C68.5129 45.973 67.1219 46.1162 65.7317 46.233C64.3429 46.402 62.9541 46.5219 61.5674 46.6659C60.1829 46.8349 58.7978 46.9844 57.4133 47.1331L55.3395 47.3845C54.6487 47.4663 53.9557 47.534 53.2642 47.6096C52.5742 47.6991 51.8819 47.7746 51.1911 47.8579L49.1144 48.0806L44.9654 48.5922C43.5867 48.7961 42.208 49.011 40.8293 49.2283L36.7106 49.9898L32.6063 50.854L28.5165 51.8031L24.4455 52.8542L20.3925 53.9925L16.3626 55.2328L12.3581 56.5744L8.37523 58L8.29501 57.768Z" fill="url(#paint3_linear)"/>
<defs>
<linearGradient id="paint0_linear" x1="-9.63018" y1="16.4333" x2="93.284" y2="123.766" gradientUnits="userSpaceOnUse">
<stop stop-color="#E660E1"/>
<stop offset="0.529" stop-color="#9552E1"/>
<stop offset="1" stop-color="#8552E1"/>
</linearGradient>
<linearGradient id="paint1_linear" x1="-9.63018" y1="16.4333" x2="93.284" y2="123.766" gradientUnits="userSpaceOnUse">
<stop stop-color="#E660E1"/>
<stop offset="0.529" stop-color="#9552E1"/>
<stop offset="1" stop-color="#8552E1"/>
</linearGradient>
<linearGradient id="paint2_linear" x1="-9.63018" y1="16.4333" x2="93.284" y2="123.766" gradientUnits="userSpaceOnUse">
<stop stop-color="#E660E1"/>
<stop offset="0.529" stop-color="#9552E1"/>
<stop offset="1" stop-color="#8552E1"/>
</linearGradient>
<linearGradient id="paint3_linear" x1="-9.63018" y1="16.4333" x2="93.284" y2="123.766" gradientUnits="userSpaceOnUse">
<stop stop-color="#E660E1"/>
<stop offset="0.529" stop-color="#9552E1"/>
<stop offset="1" stop-color="#8552E1"/>
</linearGradient>
</defs>
</svg>
