<svg width="150" height="151" viewBox="0 0 150 151" fill="none" xmlns="http://www.w3.org/2000/svg">
<g filter="url(#filter0_f)">
<rect x="30" y="36" width="90" height="85" rx="20" fill="#D1B8FF"/>
</g>
<rect x="18" width="115" height="115" rx="20" fill="white"/>
<rect x="26" y="8" width="99" height="99" rx="49.5" fill="url(#paint0_radial)"/>
<path d="M56.0843 63.2199L59.3497 45.5052L56.126 46.0613L53.9773 58.4413L48.3494 47.4027L45.4254 47.907L43.2766 60.2871L37.6487 49.2484L34.4251 49.8045L42.8247 65.507L45.2838 65.0829L47.5471 52.0951L53.5925 63.6497L56.0843 63.2199ZM98.8215 55.8481L102.086 38.1336L98.8625 38.6896L96.7145 51.0695L91.0866 40.0309L88.1625 40.5353L86.0166 52.9148L80.3859 41.8767L77.1623 42.4327L85.5619 58.1353L88.0209 57.7111L90.2856 44.7231L96.331 56.2777L98.8215 55.8481Z" fill="url(#paint1_linear)"/>
<path d="M74.3402 64.1146C74.6202 64.045 74.8632 63.8583 75.0155 63.5956C75.1678 63.3329 75.2171 63.0158 75.1524 62.714L74.3571 59.0019L76.6101 58.4414C77.0465 58.3329 77.425 58.042 77.6623 57.6327C77.8996 57.2235 77.9764 56.7294 77.8756 56.2592C77.7749 55.7889 77.5049 55.3811 77.1251 55.1254C76.7453 54.8696 76.2867 54.787 75.8504 54.8955L68.357 56.7596C68.8658 56.0401 69.3893 55.2507 69.9145 54.4168C70.1793 53.9882 70.7773 52.9716 70.8148 52.9079C71.4159 51.8578 71.9387 50.8264 72.3917 49.8459C74.5822 44.986 74.8716 40.913 73.2507 37.7259C72.8109 36.7944 72.2046 35.9658 71.4666 35.2876C70.7286 34.6094 69.8735 34.0951 68.9504 33.7743L68.1214 29.9052C68.0567 29.6034 67.8835 29.3416 67.6397 29.1775C67.3959 29.0133 67.1016 28.9603 66.8215 29.0299C66.5414 29.0996 66.2985 29.2863 66.1461 29.549C65.9938 29.8117 65.9446 30.1288 66.0092 30.4306L66.6549 33.444C66.2999 33.4523 65.5028 33.5875 65.4641 33.5972L64.8475 30.7196C64.7829 30.4178 64.6096 30.156 64.3658 29.9919C64.122 29.8278 63.8277 29.7747 63.5476 29.8444C63.2675 29.914 63.0246 30.1008 62.8722 30.3634C62.7199 30.6261 62.6707 30.9433 62.7353 31.2451L63.4055 34.373C63.304 34.4196 63.2069 34.4769 63.1159 34.5441C62.043 35.1852 61.1311 36.0983 60.4592 37.2043L60.3476 37.3966C59.89 38.1147 59.5738 38.9262 59.4184 39.7811C59.2631 40.636 59.2719 41.516 59.4444 42.3671L59.4756 42.5127C59.4939 42.6008 59.5224 42.6861 59.5604 42.7665C59.6993 43.1506 59.9369 43.484 60.2454 43.7276C60.3016 43.7774 60.3621 43.8212 60.4262 43.8584C60.4554 43.8809 60.4869 43.8999 60.5199 43.915C60.5702 43.9487 60.6241 43.9758 60.6803 43.9958C60.7016 44.0017 60.7257 44.0173 60.747 44.0232C60.7926 44.0474 60.841 44.065 60.8909 44.0753C60.9129 44.081 61.044 44.1251 61.0872 44.1367C61.1044 44.1425 61.1222 44.1453 61.1402 44.1451C61.203 44.1609 61.2668 44.1717 61.3311 44.1775L61.5185 44.1972C61.5283 44.1948 61.5496 44.2007 61.5595 44.1982C61.6195 44.1945 61.6921 44.198 61.7522 44.1942L61.9524 44.1772L61.9623 44.1747C62.0284 44.1675 62.0938 44.1549 62.1582 44.1372C62.4287 44.0763 62.6854 43.9585 62.9136 43.7905C63.1418 43.6225 63.337 43.4077 63.488 43.1583L63.5422 43.0649C63.675 42.7802 63.7535 42.4695 63.7729 42.1515C63.7922 41.8334 63.7521 41.5144 63.6549 41.2134C63.4914 40.7041 63.4613 40.1561 63.5679 39.6296C63.6745 39.1031 63.9136 38.6184 64.2591 38.2287C64.5272 37.9349 64.8415 37.6944 65.1874 37.5184C65.4572 37.3851 65.739 37.2818 66.0283 37.2101C66.5058 37.1046 66.9956 37.079 67.4804 37.1341C68.033 37.2255 68.5592 37.4508 69.0194 37.7931C69.4795 38.1355 69.8615 38.5858 70.1367 39.1103L70.3333 39.4569C70.8227 40.4847 71.0283 41.6421 70.9255 42.792C70.7773 44.4331 70.3646 46.0338 69.7061 47.5223C69.4594 48.1326 69.1726 48.7425 68.8729 49.3445L66.5317 38.4177C66.5029 38.4249 66.3457 38.4528 66.2971 38.4649C66.0894 38.5173 65.8866 38.59 65.691 38.682C65.375 38.8216 65.1102 39.069 64.9371 39.3863C64.764 39.7036 64.6921 40.0732 64.7326 40.4387L67.255 52.2113C65.8771 54.4377 64.3281 56.5353 62.6243 58.4822C62.3712 58.7641 62.2093 59.1266 62.1629 59.5157C62.1164 59.9048 62.1878 60.2996 62.3665 60.6414C62.5452 60.9832 62.8216 61.2536 63.1544 61.4124C63.4873 61.5713 63.8589 61.61 64.2139 61.5228L68.9839 60.3362L69.7794 64.049C69.8441 64.3508 70.0174 64.6126 70.2611 64.7767C70.5049 64.9408 70.7992 64.9939 71.0793 64.9242C71.3594 64.8546 71.6023 64.6678 71.7547 64.4052C71.907 64.1425 71.9563 63.8253 71.8916 63.5235L71.0966 59.813L72.2583 59.524L73.0538 63.2368C73.0825 63.3868 73.139 63.5289 73.2198 63.6549C73.3006 63.7808 73.4041 63.8879 73.5241 63.9698C73.6442 64.0517 73.7783 64.1068 73.9185 64.1317C74.0587 64.1565 74.2021 64.1508 74.3402 64.1146Z" fill="url(#paint2_linear)"/>
<path d="M34 83.066L39.5191 80.6921L45.0996 78.4816L50.73 76.4113L56.4066 74.482L62.1323 72.7161L67.8964 71.0927L73.7016 69.6375L79.5393 68.3263C81.4903 67.937 83.4478 67.5407 85.4009 67.1304L91.2863 66.0489L94.2439 65.6082C95.2309 65.4743 96.218 65.3287 97.2065 65.2042L100.18 64.9122C101.172 64.8211 102.164 64.7409 103.156 64.6607L106.139 64.5143L109.122 64.3936C111.113 64.3718 113.103 64.3625 115.091 64.3781C117.081 64.438 119.07 64.5338 121.055 64.6366C123.04 64.8086 125.023 64.9745 127 65.2259V65.5631C125.021 65.8224 123.047 65.9975 121.075 66.1782C119.105 66.3861 117.139 66.5932 115.174 66.7621C113.212 66.9856 111.25 67.1841 109.289 67.3702L106.354 67.7097L103.419 68.0211C102.442 68.1441 101.468 68.2656 100.488 68.3777L97.554 68.6946C96.5778 68.8215 95.6031 68.9282 94.624 69.0458L91.6888 69.3572L85.8244 70.0798C83.8734 70.3678 81.9267 70.6723 79.9787 70.979L74.1568 72.055L68.3566 73.2759L62.576 74.6167L56.8228 76.1022L51.0949 77.7108L45.3995 79.4635L39.7402 81.3593L34.112 83.3744L34 83.066Z" fill="url(#paint3_linear)"/>
<path d="M42.295 86.768L46.197 85.0885L50.1459 83.5243L54.1295 82.0598L58.1463 80.6949L62.1971 79.4491L66.2761 78.2999L70.3832 77.2706L74.5135 76.3425C75.8966 76.0653 77.2788 75.7874 78.6611 75.4969L82.8254 74.7316L84.9209 74.4201C85.6196 74.3251 86.3176 74.2224 87.0164 74.1344C87.7173 74.0666 88.4182 73.9911 89.1205 73.9289L91.2269 73.7498C92.6345 73.6781 94.0413 73.6104 95.4482 73.5621C96.8572 73.5621 98.2663 73.5325 99.6717 73.5535C101.08 73.5933 102.49 73.6602 103.891 73.7326C105.296 73.8549 106.699 73.9725 108.098 74.15V74.389C106.698 74.572 105.301 74.6958 103.907 74.8242C102.513 74.973 101.122 75.1162 99.7317 75.233C98.3429 75.402 96.9541 75.5219 95.5674 75.6659C94.1829 75.8349 92.7978 75.9844 91.4133 76.1331L89.3395 76.3845C88.6487 76.4663 87.9557 76.534 87.2642 76.6096C86.5742 76.6991 85.8819 76.7746 85.1911 76.8579L83.1144 77.0806L78.9654 77.5922C77.5867 77.7961 76.208 78.011 74.8293 78.2283L70.7106 78.9898L66.6063 79.854L62.5165 80.8031L58.4455 81.8542L54.3925 82.9925L50.3626 84.2328L46.3581 85.5744L42.3752 87L42.295 86.768Z" fill="url(#paint4_linear)"/>
<defs>
<filter id="filter0_f" x="0" y="6" width="150" height="145" filterUnits="userSpaceOnUse" color-interpolation-filters="sRGB">
<feFlood flood-opacity="0" result="BackgroundImageFix"/>
<feBlend mode="normal" in="SourceGraphic" in2="BackgroundImageFix" result="shape"/>
<feGaussianBlur stdDeviation="15" result="effect1_foregroundBlur"/>
</filter>
<radialGradient id="paint0_radial" cx="0" cy="0" r="1" gradientUnits="userSpaceOnUse" gradientTransform="translate(109.059 -9.61864) rotate(90) scale(140.949)">
<stop stop-color="#EDE2FF"/>
<stop offset="1" stop-color="#FEFDFF" stop-opacity="0"/>
</radialGradient>
<linearGradient id="paint1_linear" x1="24.3698" y1="45.4333" x2="127.284" y2="152.766" gradientUnits="userSpaceOnUse">
<stop stop-color="#E660E1"/>
<stop offset="0.529" stop-color="#9552E1"/>
<stop offset="1" stop-color="#8552E1"/>
</linearGradient>
<linearGradient id="paint2_linear" x1="24.3698" y1="45.4333" x2="127.284" y2="152.766" gradientUnits="userSpaceOnUse">
<stop stop-color="#E660E1"/>
<stop offset="0.529" stop-color="#9552E1"/>
<stop offset="1" stop-color="#8552E1"/>
</linearGradient>
<linearGradient id="paint3_linear" x1="24.3698" y1="45.4333" x2="127.284" y2="152.766" gradientUnits="userSpaceOnUse">
<stop stop-color="#E660E1"/>
<stop offset="0.529" stop-color="#9552E1"/>
<stop offset="1" stop-color="#8552E1"/>
</linearGradient>
<linearGradient id="paint4_linear" x1="24.3698" y1="45.4333" x2="127.284" y2="152.766" gradientUnits="userSpaceOnUse">
<stop stop-color="#E660E1"/>
<stop offset="0.529" stop-color="#9552E1"/>
<stop offset="1" stop-color="#8552E1"/>
</linearGradient>
</defs>
</svg>
