<svg width="17" height="19" viewBox="0 0 17 19" fill="none" xmlns="http://www.w3.org/2000/svg">
<path d="M13.0788 13.4659L9.57743 17.0489C9.4243 17.2057 9.24247 17.3302 9.04232 17.415C8.84218 17.4999 8.62764 17.5436 8.41098 17.5436C8.19433 17.5436 7.97979 17.4999 7.77965 17.415C7.5795 17.3302 7.39767 17.2057 7.24454 17.0489L3.74232 13.4659C2.81909 12.5211 2.19037 11.3174 1.93567 10.0069C1.68096 8.69649 1.81172 7.3382 2.3114 6.1038C2.81108 4.8694 3.65724 3.81435 4.74288 3.07206C5.82852 2.32976 7.10489 1.93356 8.41057 1.93356C9.71626 1.93356 10.9926 2.32976 12.0783 3.07206C13.1639 3.81435 14.0101 4.8694 14.5097 6.1038C15.0094 7.3382 15.1402 8.69649 14.8855 10.0069C14.6308 11.3174 14.0021 12.5211 13.0788 13.4659V13.4659Z" stroke="#3F3F46" stroke-width="2" stroke-linecap="round" stroke-linejoin="round"/>
<path d="M10.1613 10.4802C10.6255 10.0051 10.8864 9.36076 10.8864 8.68888C10.8864 8.017 10.6255 7.37264 10.1613 6.89754C9.69698 6.42245 9.06729 6.15555 8.41071 6.15555C7.75412 6.15555 7.12443 6.42245 6.66016 6.89754C6.19588 7.37264 5.93506 8.017 5.93506 8.68888C5.93506 9.36076 6.19588 10.0051 6.66016 10.4802C7.12443 10.9553 7.75412 11.2222 8.41071 11.2222C9.06729 11.2222 9.69698 10.9553 10.1613 10.4802Z" stroke="#3F3F46" stroke-width="2" stroke-linecap="round" stroke-linejoin="round"/>
</svg>
