<svg width="76" height="74" viewBox="0 0 76 74" fill="none" xmlns="http://www.w3.org/2000/svg">
<ellipse cx="38.2627" cy="37" rx="37.3139" ry="36" fill="#E0E0FF"/>
<path d="M42.1719 34.1046C43.2086 33.1044 43.7911 31.7478 43.7911 30.3333C43.7911 28.9188 43.2086 27.5623 42.1719 26.5621C41.1353 25.5619 39.7292 25 38.2631 25C36.797 25 35.3909 25.5619 34.3542 26.5621C33.3175 27.5623 32.7351 28.9188 32.7351 30.3333C32.7351 31.7478 33.3175 33.1044 34.3542 34.1046C35.3909 35.1048 36.797 35.6667 38.2631 35.6667C39.7292 35.6667 41.1353 35.1048 42.1719 34.1046Z" stroke="#6C6DFF" stroke-width="2.66667" stroke-linecap="round" stroke-linejoin="round"/>
<path d="M31.4226 42.4003C33.2368 40.65 35.6974 39.6667 38.2631 39.6667C40.8288 39.6667 43.2894 40.65 45.1036 42.4003C46.9178 44.1507 47.937 46.5246 47.937 49H28.5891C28.5891 46.5246 29.6083 44.1507 31.4226 42.4003Z" stroke="#6C6DFF" stroke-width="2.66667" stroke-linecap="round" stroke-linejoin="round"/>
<path d="M71.7788 50.3939C73.6019 46.1475 74.5402 41.5963 74.5402 37C74.5402 27.7174 70.7181 18.815 63.9148 12.2513C57.1115 5.68749 47.8842 2 38.2628 2C28.6415 2 19.4142 5.68749 12.6109 12.2513C5.80754 18.815 1.98547 27.7174 1.98547 37C1.98547 41.5963 2.92381 46.1475 4.74692 50.3939C6.57003 54.6403 9.2422 58.4987 12.6109 61.7487C15.9795 64.9988 19.9787 67.5769 24.3801 69.3358C28.7815 71.0947 33.4988 72 38.2628 72C43.0269 72 47.7442 71.0947 52.1456 69.3358C56.547 67.5769 60.5462 64.9988 63.9148 61.7487C67.2835 58.4987 69.9557 54.6403 71.7788 50.3939Z" stroke="#7E7FFF" stroke-width="2.75" stroke-linecap="round" stroke-linejoin="round"/>
</svg>
