<svg width="82" height="53" viewBox="0 0 82 53" fill="none" xmlns="http://www.w3.org/2000/svg">
<rect x="0.5" y="0.5" width="81" height="52" rx="8.5" fill="#FEFEFF"/>
<path d="M28.6728 32.1899L30.9901 19.6675L28.7024 20.0606L27.1775 28.8119L23.1835 21.0088L21.1083 21.3653L19.5834 30.1167L15.5894 22.3136L13.3017 22.7066L19.2627 33.8067L21.0079 33.5069L22.614 24.3259L26.9043 32.4937L28.6728 32.1899ZM59.0023 26.9788L61.3192 14.4565L59.0314 14.8496L57.507 23.6008L53.513 15.7977L51.4379 16.1542L49.915 24.9053L45.919 17.1025L43.6313 17.4955L49.5923 28.5956L51.3374 28.2958L52.9446 19.1146L57.2349 27.2825L59.0023 26.9788Z" fill="url(#paint0_linear)"/>
<path d="M41.6285 32.8224C41.8273 32.7732 41.9997 32.6412 42.1078 32.4555C42.2159 32.2698 42.2508 32.0456 42.205 31.8323L41.6405 29.2082L43.2394 28.812C43.5491 28.7353 43.8177 28.5297 43.9862 28.2404C44.1546 27.9511 44.209 27.6018 44.1375 27.2694C44.066 26.937 43.8744 26.6487 43.6049 26.4679C43.3354 26.2872 43.01 26.2287 42.7003 26.3055L37.3824 27.6232C37.7435 27.1146 38.115 26.5565 38.4877 25.9671C38.6756 25.664 39.1 24.9454 39.1266 24.9004C39.5532 24.1581 39.9243 23.429 40.2457 22.7359C41.8003 19.3004 42.0057 16.4212 40.8553 14.1683C40.5432 13.5098 40.1129 12.9241 39.5892 12.4447C39.0655 11.9653 38.4586 11.6017 37.8035 11.3749L37.2152 8.63987C37.1693 8.42652 37.0463 8.24148 36.8733 8.12545C36.7003 8.00942 36.4915 7.97191 36.2927 8.02116C36.0939 8.07042 35.9215 8.20241 35.8134 8.38809C35.7053 8.57378 35.6703 8.79796 35.7162 9.0113L36.1744 11.1414C35.9225 11.1473 35.3568 11.2429 35.3293 11.2497L34.8918 9.21559C34.8459 9.00225 34.7229 8.8172 34.5499 8.70117C34.3769 8.58514 34.168 8.54763 33.9693 8.59688C33.7705 8.64614 33.5981 8.77813 33.49 8.96381C33.3819 9.1495 33.3469 9.37368 33.3928 9.58702L33.8684 11.7981C33.7964 11.8311 33.7275 11.8716 33.6629 11.9191C32.9015 12.3723 32.2544 13.0177 31.7775 13.7996L31.6983 13.9356C31.3735 14.4432 31.1491 15.0168 31.0389 15.6211C30.9286 16.2254 30.9349 16.8475 31.0573 17.4491L31.0795 17.5521C31.0924 17.6144 31.1126 17.6747 31.1396 17.7315C31.2382 18.003 31.4068 18.2387 31.6258 18.4109C31.6657 18.4461 31.7086 18.4771 31.7541 18.5034C31.7748 18.5193 31.7971 18.5327 31.8206 18.5434C31.8563 18.5672 31.8945 18.5863 31.9344 18.6005C31.9495 18.6046 31.9666 18.6157 31.9817 18.6198C32.0141 18.637 32.0484 18.6494 32.0839 18.6567C32.0995 18.6607 32.1925 18.6919 32.2232 18.7001C32.2354 18.7042 32.248 18.7062 32.2608 18.706C32.3054 18.7172 32.3506 18.7248 32.3962 18.7289L32.5292 18.7429C32.5362 18.7411 32.5513 18.7453 32.5583 18.7436C32.6009 18.7409 32.6525 18.7434 32.6951 18.7407L32.8372 18.7287L32.8442 18.727C32.8911 18.7218 32.9376 18.713 32.9832 18.7004C33.1752 18.6574 33.3574 18.5741 33.5193 18.4554C33.6813 18.3366 33.8198 18.1848 33.927 18.0085L33.9654 17.9424C34.0597 17.7411 34.1154 17.5216 34.1291 17.2967C34.1429 17.0719 34.1144 16.8464 34.0454 16.6336C33.9294 16.2736 33.908 15.8862 33.9837 15.514C34.0593 15.1418 34.229 14.7992 34.4742 14.5238C34.6645 14.316 34.8875 14.146 35.133 14.0216C35.3245 13.9274 35.5244 13.8544 35.7297 13.8037C36.0686 13.7291 36.4162 13.711 36.7603 13.75C37.1525 13.8146 37.5259 13.9739 37.8525 14.2158C38.179 14.4578 38.4501 14.7762 38.6454 15.1469L38.7849 15.392C39.1323 16.1185 39.2781 16.9367 39.2052 17.7495C39.1 18.9096 38.8071 20.0412 38.3398 21.0933C38.1647 21.5248 37.9612 21.9559 37.7485 22.3814L36.087 14.6573C36.0666 14.6624 35.955 14.6821 35.9205 14.6907C35.7731 14.7278 35.6292 14.7791 35.4904 14.8442C35.2662 14.9429 35.0782 15.1178 34.9554 15.342C34.8325 15.5663 34.7815 15.8276 34.8102 16.086L36.6003 24.408C35.6225 25.9818 34.5232 27.4646 33.314 28.8409C33.1344 29.0401 33.0195 29.2964 32.9865 29.5714C32.9536 29.8465 33.0043 30.1256 33.1311 30.3672C33.2579 30.6088 33.454 30.8 33.6903 30.9122C33.9265 31.0245 34.1902 31.0519 34.4421 30.9903L37.8273 30.1514L38.3918 32.776C38.4377 32.9894 38.5607 33.1744 38.7337 33.2904C38.9067 33.4065 39.1156 33.444 39.3144 33.3947C39.5131 33.3455 39.6855 33.2135 39.7936 33.0278C39.9017 32.8421 39.9367 32.6179 39.8908 32.4046L39.3266 29.7816L40.151 29.5773L40.7156 32.2019C40.736 32.3079 40.776 32.4084 40.8334 32.4974C40.8907 32.5864 40.9642 32.6621 41.0494 32.7201C41.1346 32.778 41.2297 32.8169 41.3292 32.8344C41.4287 32.852 41.5305 32.8479 41.6285 32.8224Z" fill="url(#paint1_linear)"/>
<path d="M13 46.2191L16.9168 44.541L20.8771 42.9784L24.8729 41.5149L28.9014 40.151L32.9649 38.9028L37.0555 37.7552L41.1753 36.7265L45.3182 35.7997C46.7028 35.5245 48.092 35.2443 49.4781 34.9543L53.6548 34.1898L55.7537 33.8782C56.4542 33.7836 57.1547 33.6807 57.8562 33.5926L59.9664 33.3862C60.6705 33.3218 61.3745 33.2651 62.0786 33.2084L64.1954 33.1049L66.3123 33.0196C67.7251 33.0042 69.1378 32.9976 70.5485 33.0086C71.9608 33.051 73.372 33.1187 74.7807 33.1914C76.1899 33.313 77.597 33.4302 79 33.608V33.8463C77.5954 34.0296 76.195 34.1534 74.795 34.2811C73.3971 34.4281 72.0018 34.5745 70.6075 34.6939C69.2147 34.8519 67.8225 34.9922 66.4313 35.1238L64.3478 35.3637L62.2648 35.5839C61.5714 35.6709 60.8802 35.7567 60.1848 35.836L58.1029 36.06C57.4101 36.1497 56.7183 36.2251 56.0235 36.3082L53.9405 36.5284L49.7786 37.0391C48.394 37.2428 47.0125 37.458 45.63 37.6748L41.4984 38.4355L37.3821 39.2985L33.2797 40.2463L29.1968 41.2964L25.1318 42.4335L21.0899 43.6724L17.0737 45.0126L13.0795 46.4371L13 46.2191Z" fill="url(#paint2_linear)"/>
<path d="M18.8868 48.836L21.6559 47.6488L24.4584 46.543L27.2854 45.5078L30.1361 44.5429L33.0108 43.6623L35.9056 42.8499L38.8204 42.1223L41.7515 41.4662C42.733 41.2703 43.714 41.0738 44.695 40.8685L47.6503 40.3275L49.1374 40.1073C49.6333 40.0402 50.1287 39.9675 50.6245 39.9053C51.1219 39.8575 51.6194 39.8041 52.1178 39.7601L53.6126 39.6335C54.6115 39.5828 55.61 39.5349 56.6084 39.5008C57.6083 39.5008 58.6083 39.4799 59.6057 39.4947C60.6052 39.5228 61.6056 39.5702 62.6 39.6213C63.5974 39.7078 64.5927 39.7909 65.5855 39.9164V40.0853C64.5922 40.2147 63.601 40.3022 62.6112 40.393C61.6221 40.4981 60.6349 40.5994 59.6483 40.6819C58.6627 40.8014 57.6771 40.8861 56.693 40.988C55.7105 41.1074 54.7274 41.2131 53.7449 41.3182L52.2732 41.496C51.7829 41.5538 51.2912 41.6017 50.8004 41.655C50.3107 41.7183 49.8194 41.7717 49.3292 41.8306L47.8554 41.988L44.9109 42.3496C43.9325 42.4938 42.9541 42.6457 41.9756 42.7993L39.0527 43.3376L36.14 43.9485L33.2375 44.6194L30.3484 45.3625L27.4721 46.1671L24.6122 47.0439L21.7703 47.9922L18.9437 49L18.8868 48.836Z" fill="url(#paint3_linear)"/>
<rect x="0.5" y="0.5" width="81" height="52" rx="8.5" stroke="#FFD3FD"/>
<defs>
<linearGradient id="paint0_linear" x1="6.16568" y1="19.6167" x2="78.9028" y2="95.7749" gradientUnits="userSpaceOnUse">
<stop stop-color="#E660E1"/>
<stop offset="0.529" stop-color="#9552E1"/>
<stop offset="1" stop-color="#8552E1"/>
</linearGradient>
<linearGradient id="paint1_linear" x1="6.16568" y1="19.6167" x2="78.9028" y2="95.7749" gradientUnits="userSpaceOnUse">
<stop stop-color="#E660E1"/>
<stop offset="0.529" stop-color="#9552E1"/>
<stop offset="1" stop-color="#8552E1"/>
</linearGradient>
<linearGradient id="paint2_linear" x1="6.16568" y1="19.6167" x2="78.9028" y2="95.7749" gradientUnits="userSpaceOnUse">
<stop stop-color="#E660E1"/>
<stop offset="0.529" stop-color="#9552E1"/>
<stop offset="1" stop-color="#8552E1"/>
</linearGradient>
<linearGradient id="paint3_linear" x1="6.16568" y1="19.6167" x2="78.9028" y2="95.7749" gradientUnits="userSpaceOnUse">
<stop stop-color="#E660E1"/>
<stop offset="0.529" stop-color="#9552E1"/>
<stop offset="1" stop-color="#8552E1"/>
</linearGradient>
</defs>
</svg>
